<svg width="30" height="30" xmlns="http://www.w3.org/2000/svg"><defs><linearGradient x1="89.842%" y1="0%" x2="13.094%" y2="84.471%" id="a"><stop stop-color="#8DFB92" offset="0%"/><stop stop-color="#07B20F" stop-opacity=".979" offset="100%"/></linearGradient><filter x="-60.9%" y="-63.6%" width="221.7%" height="227.3%" filterUnits="objectBoundingBox" id="b"><feOffset dx="2" dy="2" in="SourceAlpha" result="shadowOffsetOuter1"/><feGaussianBlur stdDeviation="1.5" in="shadowOffsetOuter1" result="shadowBlurOuter1"/><feColorMatrix values="0 0 0 0 0 0 0 0 0 0 0 0 0 0 0 0 0 0 0.0899003623 0" in="shadowBlurOuter1" result="shadowMatrixOuter1"/><feMerge><feMergeNode in="shadowMatrixOuter1"/><feMergeNode in="SourceGraphic"/></feMerge></filter></defs><g fill="none" fill-rule="evenodd"><circle fill="url(#a)" cx="15" cy="15" r="15"/><g filter="url(#b)" transform="translate(7.2 7.2)" fill="#FFF" fill-rule="nonzero"><path d="M14.967 3.675a.81.81 0 011.564.421l-.693 2.576a.81.81 0 01-.991.572l-2.07-.552a.81.81 0 01.417-1.565l1.29.343.483-1.795z"/><path d="M13.551 10.18a.81.81 0 111.532.526c-1.119 3.253-4.206 5.36-7.574 5.157-3.367-.202-6.191-2.661-6.933-6.024-.74-3.357.772-6.814 3.717-8.482 2.855-1.617 6.841-.96 9.019 1.315.935.977 1.456 1.647 2.33 2.957a.81.81 0 11-1.348.899c-.825-1.237-1.289-1.833-2.152-2.735-1.673-1.748-4.85-2.272-7.051-1.026-2.322 1.315-3.52 4.057-2.933 6.723.587 2.662 2.81 4.598 5.448 4.756 2.636.159 5.06-1.496 5.945-4.067z"/><path d="M8.439 8.757l1.85 1.842a.81.81 0 01-1.143 1.148l-2.089-2.08a.81.81 0 01-.238-.574v-4.16a.81.81 0 011.62 0v3.824z"/></g></g></svg>