<svg width="500" height="500" fill="none" xmlns="http://www.w3.org/2000/svg"><circle cx="250" cy="250" r="250" fill="url(#paint0_linear)"/><path d="M108.333 250.402c0-78.343 61.685-139.291 141.6-139.291 79.611 0 141.632 60.948 141.632 139.291 0 78.347-62.021 138.487-141.632 138.487-79.916 0-141.6-60.14-141.6-138.487zm212.443 0c0-75.447-19.719-130.837-70.843-130.837-51.056 0-71.112 55.39-71.112 130.837 0 75.449 20.391 130.134 71.112 130.134 50.415.002 70.843-54.348 70.843-130.134z" fill="#fff"/><defs><linearGradient id="paint0_linear" x1="500" y1="0" x2="0" y2="500" gradientUnits="userSpaceOnUse"><stop stop-color="#E75245"/><stop offset="1" stop-color="#AE4239"/></linearGradient></defs></svg>