<svg width="50" height="50" fill="none" xmlns="http://www.w3.org/2000/svg"><path fill-rule="evenodd" clip-rule="evenodd" d="M25 0C11.19 0 0 11.19 0 25s11.19 25 25 25 25-11.19 25-25S38.81 0 25 0z" fill="url(#paint0_linear)"/><path fill-rule="evenodd" clip-rule="evenodd" d="M19.942 32.305c-.26.257-.559.384-.896.38-.338-.003-.64-.136-.905-.398a1.26 1.26 0 01-.388-.878 1.16 1.16 0 01.37-.9l10.086-9.957-6.613-.038a1.365 1.365 0 01-.904-.398 1.331 1.331 0 01-.403-.893 1.75 1.75 0 01.122-.485c.064-.156.152-.29.263-.4a1.2 1.2 0 01.405-.26c.16-.063.323-.103.492-.12l10.778.245.248 10.643c.004.37-.115.675-.356.913-.242.239-.55.356-.925.352a1.247 1.247 0 01-.89-.383 1.217 1.217 0 01-.39-.88l-.064-6.445-10.03 9.902z" fill="#fff" stroke="#fff" stroke-width=".4"/><defs><linearGradient id="paint0_linear" x1="25" y1="0" x2="25" y2="50" gradientUnits="userSpaceOnUse"><stop stop-color="#5396FF"/><stop offset="1" stop-color="#106DFF"/></linearGradient></defs></svg>