<svg width="50" height="50" fill="none" xmlns="http://www.w3.org/2000/svg"><path fill-rule="evenodd" clip-rule="evenodd" d="M25 0C11.19 0 0 11.19 0 25s11.19 25 25 25 25-11.19 25-25S38.81 0 25 0z" fill="#242B4D"/><path fill-rule="evenodd" clip-rule="evenodd" d="M25 0C11.19 0 0 11.19 0 25s11.19 25 25 25 25-11.19 25-25S38.81 0 25 0z" fill="url(#paint0_linear)"/><path fill-rule="evenodd" clip-rule="evenodd" d="M33.748 16.253a.864.864 0 01.204.896l-6.046 17.273a.864.864 0 01-1.604.065l-3.32-7.47-7.47-3.319a.864.864 0 01.066-1.604l17.254-6.039a.865.865 0 01.916.198zM29.85 18.93l-11.645 4.076 5.24 2.329 6.405-6.405z" fill="#fff"/><defs><linearGradient id="paint0_linear" x1="25" y1="0" x2="25" y2="50" gradientUnits="userSpaceOnUse"><stop stop-color="#3281FF" stop-opacity=".33"/><stop offset="1" stop-color="#3281FF" stop-opacity="0"/></linearGradient></defs></svg>